<svg version="1.1"
     baseProfile="full"
     width="670" height="260"
     xmlns="http://www.w3.org/2000/svg">

  <rect x="10" y ="50" width="300" height="200" fill="lightgreen" stroke="black" stroke-width="3" />

  <circle cx="560" cy="150" r="100" fill="lightcoral" stroke="black" stroke-width="3"/>

  <line x1="160" x2="310" y1="150" y2="150" stroke="black" stroke-width="3"/>

  <line x1="160" x2="10" y1="150" y2="50" stroke="black" stroke-width="3"/>

  <line x1="160" x2="10" y1="150" y2="250" stroke="black" stroke-width="3"/>

  <line x1="460" x2="560" y1="150" y2="150" stroke="black" stroke-width="3"/>

  <line x1="560" x2="635" y1="150" y2="85" stroke="black" stroke-width="3"/>

  <line x1="560" x2="635" y1="150" y2="215" stroke="black" stroke-width="3"/>

  <circle cx="387" cy="150" r="40" fill="lightblue" stroke="black" stroke-width="3"/>

  <line x1="310" x2="347" y1="150" y2="150" stroke="black" stroke-width="3"/>

  <line x1="347" x2="340" y1="150" y2="143" stroke="black" stroke-width="3"/>

  <line x1="347" x2="340" y1="150" y2="157" stroke="black" stroke-width="3"/>

  <line x1="427" x2="460" y1="150" y2="150" stroke="black" stroke-width="3"/>

  <line x1="427" x2="434" y1="150" y2="143" stroke="black" stroke-width="3"/>

  <line x1="427" x2="434" y1="150" y2="157" stroke="black" stroke-width="3"/>

  <text font-family="helvetica" x="387" y="157" font-size="24" text-anchor="middle" fill="black">Fit</text>
  
  <text font-family="helvetica" x="160" y="30" font-size="28" text-anchor="middle" fill="black">Value Map</text>

  <text font-family="helvetica" x="540" y="30" font-size="28" text-anchor="middle" fill="black">Customer Profile</text>

</svg>
